PathFileType	4	(X/Y/Z)	C:/Users/beibeiliu/ov580/test_trc/User1\sequence.26_training_dense_left.trc
DataRate	CameraRate	NumFrames	NumMarkers	Units	OrigDataRate	OrigDataStartFrame	OrigNumFrames
120	120	15	19	mm	120	289	330
Frame#	Time	ThumbCMC			ThumbMCP			ThumbIP			ThumbTip			IndexMCP			IndexPIP			IndexTip			MiddleMCP			MiddlePIP			MiddleTip			RingMCP			RingPIP			RingTip			PinkyMCP			PinkyPIP			PinkyTip			BackHand1			BackHand2			BackHand3	
		X0	Y0	Z0	X1	Y1	Z1	X2	Y2	Z2	X3	Y3	Z3	X4	Y4	Z4	X5	Y5	Z5	X6	Y6	Z6	X7	Y7	Z7	X8	Y8	Z8	X9	Y9	Z9	X10	Y10	Z10	X11	Y11	Z11	X12	Y12	Z12	X13	Y13	Z13	X14	Y14	Z14	X15	Y15	Z15	X16	Y16	Z16	X17	Y17	Z17	X18	Y18	Z18	
288	2.4	-130.741	-20.6807	43.4818	-111.833	-41.3722	11.5195	-123.804	-58.1615	-14.2258	-141.66	-76.7501	-20.3273	-167.416	-11.413	-32.4514	-172.673	-13.8636	-56.3255	-182.668	-20.9499	-79.9176	-189.8	-25.5534	-38.8717	-192.779	-31.0036	-63.8958	-198.966	-35.4284	-94.11	-184.584	-62.3333	-25.6942	-156.894	-80.2	-21.8354	-150.319	-70.28	9.34415	-188.487	-77.2118	-2.87614	-160.358	-84.2379	9.13529	-150.238	-62.5224	31.5652	-200.117	-28.3724	28.7367	-194.222	-25.3074	63.3102	-169.898	-5.72501	37.7642	
289	2.40833	-120.966	-28.6285	49.8292	-106.301	-49.7194	16.078	-119.945	-62.6444	-12.5238	-139.808	-79.732	-23.5427	-150.158	-9.1642	-26.4326	-160.83	-12.387	-54.6289	-170.547	-15.5166	-76.9007	-176.005	-18.687	-32.8276	-180.439	-21.1599	-59.3554	-187.89	-24.7364	-93.4572	-175.938	-55.8897	-27.8864	-154.884	-80.2749	-21.7922	-152.555	-73.8042	13.1179	-187.377	-71.4037	-2.89865	-163.105	-85.4087	4.14093	-149.242	-65.9814	31.863	-189.999	-25.5195	27.0706	-188.561	-22.189	64.9727	-160.577	-7.63527	44.952	
290	2.41667	-113.661	-37.5757	53.2758	-102.333	-56.6052	16.4011	-116.196	-66.5581	-11.9366	-141.984	-77.8813	-21.2468	-137.519	-9.8262	-21.9212	-147.48	-9.121	-51.1647	-154.441	-9.32744	-71.7985	-164.966	-14.3681	-34.1636	-168.765	-15.154	-59.5228	-170.911	-14.572	-89.0998	-170.321	-51.9578	-27.1176	-155.297	-80.5536	-22.5048	-150.082	-75.9888	12.2599	-186.279	-66.0407	-4.08647	-162.548	-87.2152	7.99066	-150.861	-73.4078	32.7791	-179.342	-20.4703	33.3535	-181.221	-22.1686	66.5738	-150.071	-12.2463	45.3496	
291	2.425	-108.754	-44.4795	55.5179	-102.828	-62.9819	21.6143	-113.67	-70.2813	-6.84613	-133.841	-80.7835	-19.8918	-126.429	-10.9787	-22.7075	-136.455	-9.85065	-45.819	-143.636	-8.86176	-68.6191	-152.894	-12.4409	-27.8477	-157.608	-12.7562	-53.2719	-158.466	-11.495	-83.628	-168.064	-49.4306	-24.0449	-157.84	-79.9623	-23.7308	-148.756	-79.9205	11.8097	-181.895	-69.4219	-5.50798	-162.862	-85.7754	4.64608	-150.01	-78.1653	32.6933	-177.101	-23.8934	33.1562	-178.3	-25.349	69.8717	-141.014	-14.9221	52.951	
292	2.43333	-106.283	-50.5252	58.1179	-100.084	-68.1174	24.8984	-109.248	-74.338	-2.59642	-134.028	-80.2322	-19.7651	-123.5	-15.733	-17.1126	-126.133	-12.6595	-40.0638	-133.321	-10.1711	-65.968	-149.271	-14.808	-24.8284	-146.446	-10.2109	-53.7398	-149.95	-8.18097	-78.2031	-161.564	-48.7039	-23.893	-151.973	-83.198	-20.9935	-149.025	-84.1116	8.99825	-181.75	-64.1771	-3.1122	-162.857	-87.9293	4.01655	-147.394	-79.6006	31.1261	-172.502	-24.4916	37.5075	-168.649	-27.8242	69.2439	-136.33	-19.0725	56.4002	
293	2.44167	-107.658	-56.9948	64.7216	-96.2484	-75.5693	29.3976	-110.154	-77.2308	-3.84901	-128.899	-84.5218	-17.4024	-115.563	-19.3135	-11.1575	-119.561	-14.1322	-39.3914	-122.863	-10.7987	-61.7993	-139.562	-13.5585	-25.0799	-142.01	-12.294	-49.1935	-146.69	-8.41139	-77.1354	-158.567	-46.8768	-19.7941	-150.346	-79.5909	-24.6224	-147.972	-87.6821	9.42206	-174.209	-62.467	-2.68508	-158.557	-86.2991	5.50265	-145.735	-79.0186	33.6609	-168.656	-24.3065	35.7732	-168.002	-26.9849	70.3132	-131.613	-23.4715	56.6981	
294	2.45	-104.554	-60.2532	63.5065	-98.2575	-76.547	29.1103	-108.417	-81.1387	2.48332	-128.769	-87.3105	-15.5701	-112.208	-22.348	-9.07785	-117.39	-17.6741	-36.5102	-120.675	-13.4039	-64.3811	-140.657	-18.3969	-22.27	-139.519	-15.2092	-45.5452	-140.479	-8.75981	-78.8322	-159.477	-50.6613	-18.7573	-152.455	-85.4185	-20.3165	-148.915	-90.4804	11.3733	-176.187	-69.4014	-3.20769	-160.821	-91.0987	10.1736	-148.823	-79.6302	39.1822	-165.357	-26.3222	37.3791	-170.684	-29.8245	76.8211	-132.545	-26.7236	62.0351	
295	2.45833	-110.419	-62.5111	67.4105	-98.2559	-81.2267	29.6976	-111.384	-83.0842	4.22646	-133.317	-88.491	-18.4691	-111.788	-23.7694	-13.0544	-117.247	-20.8538	-37.3943	-119.761	-17.5382	-61.0669	-136.934	-20.3308	-17.9153	-139.526	-17.3045	-44.4936	-141.143	-12.4908	-77.0994	-157.684	-52.3962	-17.0775	-154.062	-89.2572	-16.7894	-145.703	-90.8025	13.3434	-178.852	-68.3993	0.532468	-161.89	-92.1785	11.355	-149.75	-81.6804	40.7476	-163.143	-26.9985	40.9549	-169.002	-30.6946	73.4964	-132.702	-29.1659	61.8683	
296	2.46667	-112.033	-63.8625	68.1621	-104.281	-81.8091	32.3558	-115.3	-83.5729	-0.742257	-138.22	-88.5409	-16.647	-115.533	-26.0967	-12.4758	-116.567	-22.8698	-34.1388	-124.042	-20.2064	-62.7385	-138.722	-21.2646	-20.8482	-139.049	-18.4944	-47.1296	-145.434	-15.7695	-74.5177	-161.231	-53.8017	-16.7676	-158.189	-89.742	-17.3248	-152.873	-93.6188	14.5745	-179.847	-71.1658	0.202854	-163.822	-91.802	12.0761	-152.096	-85.6129	37.8938	-168.165	-26.3705	37.9895	-168.548	-32.6589	75.8041	-134.395	-28.9275	63.3588	
297	2.475	-112.81	-62.9023	62.6	-109.678	-81.0387	31.2379	-119.828	-85.2568	1.56476	-144.457	-88.8804	-14.624	-119.616	-26.405	-13.2146	-121.921	-23.7546	-38.1875	-131.365	-21.2464	-64.6699	-149.627	-22.4853	-19.3509	-146.057	-20.3995	-47.5231	-150.587	-16.3131	-78.1372	-167.133	-56.962	-18.4966	-165.136	-90.3219	-17.6518	-153.46	-94.2786	16.2496	-187.271	-70.2008	2.13221	-170.785	-93.0534	10.3623	-158.448	-83.485	43.4572	-172.927	-30.6701	41.421	-176.396	-30.392	74.5326	-139.026	-29.8714	57.4834	
298	2.48333	-118.395	-61.7115	61.6948	-111.324	-82.1656	28.7324	-126.966	-84.1519	-0.194965	-148.07	-90.1277	-14.8374	-130.099	-26.1858	-15.5715	-133.986	-24.4353	-40.3817	-139.183	-20.6787	-67.0808	-152.688	-22.7477	-23.5507	-154.801	-20.6173	-47.4283	-163.942	-16.4335	-79.4758	-171.479	-58.6066	-19.1037	-164.628	-92.4817	-15.7529	-161.325	-95.278	14.4937	-188.449	-72.1086	1.54853	-176.053	-95.5892	15.6946	-164.965	-88.4448	41.9676	-175.003	-29.6862	40.4495	-177.537	-30.7302	75.5539	-143.43	-28.105	58.2124	
299	2.49167	-122.267	-59.9028	59.2565	-118.63	-79.1762	29.3545	-132.067	-83.2868	-2.66145	-157.356	-88.9574	-18.9767	-138.746	-26.3627	-17.7143	-143.51	-23.2593	-40.3271	-149.279	-21.8047	-63.2913	-165.483	-23.1735	-25.2363	-165.4	-21.2766	-47.6239	-169.058	-17.7207	-75.5599	-183.585	-57.5249	-16.1368	-175.648	-92.4251	-15.5421	-164.597	-94.8565	13.2678	-199.624	-71.8983	3.97186	-181.859	-93.4727	10.9763	-165.908	-83.4048	43.0334	-183.536	-28.9593	40.6906	-184.854	-30.1307	74.5373	-149.794	-27.6268	56.3656	
300	2.5	-127.98	-60.7664	63.0819	-123.734	-77.0635	23.7064	-138.213	-81.3078	-0.895143	-162.577	-89.2221	-17.7954	-147.54	-25.2708	-17.4516	-147.151	-22.8449	-41.0001	-160.047	-21.1051	-65.0171	-173.155	-23.6108	-23.4446	-173.608	-21.6397	-48.9202	-177.212	-18.592	-76.2244	-189.405	-59.2256	-19.0424	-180.178	-89.4139	-18.7309	-171.307	-92.7687	17.7859	-203.578	-75.7696	3.23384	-188.017	-96.1606	13.8308	-172.196	-86.1819	39.4237	-187.885	-30.68	41.125	-185.948	-28.8922	73.2251	-156.97	-26.271	56.0112	
301	2.50833	-133.458	-59.2408	58.4061	-128.372	-77.5112	21.5678	-141.254	-84.7502	-3.29664	-165.159	-89.7706	-17.1552	-152.041	-26.3088	-15.1122	-155.094	-23.0566	-40.5817	-162.576	-20.4966	-66.7034	-177.537	-23.8152	-20.3217	-181.931	-21.4931	-52.4189	-189.305	-18.074	-76.3582	-192.319	-56.1567	-16.4422	-188.548	-91.0161	-17.5267	-173.156	-91.6728	16.3331	-210.168	-73.9003	3.94629	-192.559	-95.4483	14.869	-175.244	-85.1835	39.3683	-195.443	-30.129	41.6315	-191.83	-28.4928	74.779	-156.991	-24.117	55.5181	
302	2.51667	-134.093	-59.4934	57.7358	-131.536	-78.5615	19.9	-145.276	-83.7061	-2.18393	-174.256	-89.2912	-20.3808	-152.398	-24.395	-16.726	-159.635	-21.5833	-40.7265	-169.79	-18.8506	-69.5229	-183.232	-22.9946	-24.0841	-185.909	-20.7483	-52.1716	-190.719	-17.1979	-76.3166	-198.349	-57.7257	-19.8406	-194.602	-89.8136	-18.0825	-179.346	-91.5908	16.3497	-212.499	-72.552	4.34154	-194.387	-93.4172	13.7655	-178.93	-84.2197	40.0656	-197.837	-28.4566	41.8551	-197.146	-29.7817	75.1826	-159.738	-25.8606	57.3592	
